<svg viewBox="0 0 38 26" fill="none" xmlns="http://www.w3.org/2000/svg"><path d="M1.4585 18.125V0.625H27.9085C28.651 0.625 29.3047 1.10375 29.5135 1.8L31.6472 10.57L35.5972 11.9788C36.1285 12.2663 36.4585 12.8138 36.4585 13.4075V18.125" stroke="#231F20" stroke-width="1.25" stroke-linecap="round" stroke-linejoin="round"></path><path d="M18.9585 18.1252V3.95898" stroke="#231F20" stroke-width="1.25" stroke-linecap="round" stroke-linejoin="round"></path><path d="M32.7683 21.458H37.2921" stroke="#231F20" stroke-width="1.25" stroke-linecap="round" stroke-linejoin="round"></path><path d="M13.4805 21.458H24.4367" stroke="#231F20" stroke-width="1.25" stroke-linecap="round" stroke-linejoin="round"></path><path d="M0.624756 21.458H5.14726" stroke="#231F20" stroke-width="1.25" stroke-linecap="round" stroke-linejoin="round"></path><path fill-rule="evenodd" clip-rule="evenodd" d="M13.4812 21.4582C13.4812 23.7595 11.6162 25.6245 9.31496 25.6245C7.01371 25.6245 5.14746 23.7595 5.14746 21.4582C5.14746 19.157 7.01371 17.292 9.31496 17.292C11.6162 17.292 13.4812 19.157 13.4812 21.4582Z" stroke="#231F20" stroke-width="1.25" stroke-linecap="round" stroke-linejoin="round"></path><path fill-rule="evenodd" clip-rule="evenodd" d="M10.8774 21.458C10.8774 22.3205 10.1774 23.0205 9.31494 23.0205C8.45244 23.0205 7.75244 22.3205 7.75244 21.458C7.75244 20.5955 8.45244 19.8955 9.31494 19.8955C10.1774 19.8955 10.8774 20.5955 10.8774 21.458Z" fill="#231F20"></path><path fill-rule="evenodd" clip-rule="evenodd" d="M32.7688 21.4582C32.7688 23.7595 30.9026 25.6245 28.6026 25.6245C26.3013 25.6245 24.4351 23.7595 24.4351 21.4582C24.4351 19.157 26.3013 17.292 28.6026 17.292C30.9026 17.292 32.7688 19.157 32.7688 21.4582Z" stroke="#231F20" stroke-width="1.25" stroke-linecap="round" stroke-linejoin="round"></path><path fill-rule="evenodd" clip-rule="evenodd" d="M30.1646 21.458C30.1646 22.3205 29.4646 23.0205 28.6021 23.0205C27.7396 23.0205 27.0396 22.3205 27.0396 21.458C27.0396 20.5955 27.7396 19.8955 28.6021 19.8955C29.4646 19.8955 30.1646 20.5955 30.1646 21.458Z" fill="#231F20"></path><path d="M31.6476 10.5695H23.5588V3.95703H30.0388" stroke="#231F20" stroke-width="1.25" stroke-linecap="round" stroke-linejoin="round"></path></svg>