<svg viewBox="0 0 38 36" fill="none" xmlns="http://www.w3.org/2000/svg"><path d="M4.79149 4.13965H2.67774C1.54399 4.13965 0.625244 5.13715 0.625244 6.3684V6.37215C0.625244 10.8146 2.62899 14.9121 5.74274 17.5859" stroke="#231F20" stroke-width="1.25" stroke-linecap="round" stroke-linejoin="round"></path><path d="M33.1251 4.13965H35.2401C36.3726 4.13965 37.2913 5.13715 37.2913 6.3684V6.37215C37.2913 10.8146 35.2876 14.9121 32.1738 17.5859" stroke="#231F20" stroke-width="1.25" stroke-linecap="round" stroke-linejoin="round"></path><mask id="mask0" mask-type="alpha" maskUnits="userSpaceOnUse" x="9" y="33" width="20" height="2"><path fill-rule="evenodd" clip-rule="evenodd" d="M9.80859 33.3331H28.1086V34.5829H9.80859V33.3331Z" fill="white"></path></mask><g mask="url(#mask0)"><path d="M9.80859 33.958H28.1086" stroke="#231F20" stroke-width="1.25" stroke-linecap="round" stroke-linejoin="round"></path></g><path d="M18.9583 23.959V33.959" stroke="#231F20" stroke-width="1.25" stroke-linecap="round" stroke-linejoin="round"></path><path fill-rule="evenodd" clip-rule="evenodd" d="M8.12524 13.125V0.625H29.7915V13.125C29.7915 19.1087 24.9415 23.9587 18.959 23.9587C12.9752 23.9587 8.12524 19.1087 8.12524 13.125Z" stroke="#231F20" stroke-width="1.25" stroke-linecap="round" stroke-linejoin="round"></path></svg>